:FULLY-SPECIFIED
:FORCE-ALL-JOINTS-BE-3DOF
:DEGREES
136
root 7.69008 16.6804 -26.3289 -11.2604 6.99153 2.3295
lfemur -2.13342 9.92111 -19.7361
ltibia 28.7059 0 0
lfoot -14.9437 -11.0402 0
ltoes 31.4918 0 0
rfemur -83.4385 -26.9181 37.7513
rtibia 47.6781 0 0
rfoot -1.82041 24.394 0
rtoes -40.2902 0 0
lowerback 16.7816 -1.87027 -5.4287
upperback 5.70267 -3.22868 0.561708
thorax -2.99437 -1.62672 4.24181
lowerneck -12.551 -0.901649 0.865372
upperneck 1.38584 -1.39919 1.43414
head 2.6236 -0.6324 0.219367
lclavicle 2.78038e-15 2.32212e-14 0
lhumerus -39.935 -15.2885 90.6186
lradius 50.6714 0 0
lwrist 12.8943 0 0
lhand 5.99923 4.88226 0
lfingers 7.12502 0 0
lthumb 31.3654 32.5461 0
rclavicle 2.78038e-15 2.32212e-14 0
rhumerus -40.7358 -10.4983 -52.9618
rradius 68.4062 0 0
rwrist -10.3344 0 0
rhand 12.7282 -17.4693 0
rfingers 7.12502 0 0
rthumb 37.7487 -40.6328 0
137
root 7.65409 16.6594 -26.3179 -11.2472 6.98789 2.31452
lfemur -2.18541 9.82121 -19.703
ltibia 28.7545 0 0
lfoot -15.0434 -11.0717 0
ltoes 31.2877 0 0
rfemur -83.7605 -27.0441 37.8931
rtibia 48.529 0 0
rfoot -1.4892 24.7287 0
rtoes -40.4979 0 0
lowerback 16.803 -1.87407 -5.46472
upperback 5.69873 -3.23899 0.565799
thorax -3.00234 -1.63122 4.27272
lowerneck -12.5562 -0.89078 0.864983
upperneck 1.35954 -1.38372 1.44253
head 2.61427 -0.624608 0.223334
lclavicle 4.45627e-15 2.30336e-14 0
lhumerus -39.8392 -15.2692 90.4833
lradius 50.6054 0 0
lwrist 12.8406 0 0
lhand 5.97846 4.80712 0
lfingers 7.12502 0 0
lthumb 31.3501 32.5084 0
rclavicle 4.45627e-15 2.30336e-14 0
rhumerus -40.8386 -10.5194 -53.0245
rradius 68.4389 0 0
rwrist -10.2739 0 0
rhand 12.4178 -17.5654 0
rfingers 7.12502 0 0
rthumb 37.4505 -42.1577 0
138
root 7.6181 16.6385 -26.307 -11.1698 7.09631 2.29558
lfemur -2.36039 9.80084 -19.6499
ltibia 28.8909 0 0
lfoot -15.1664 -11.0108 0
ltoes 30.8608 0 0
rfemur -84.0467 -27.1724 37.9728
rtibia 49.9415 0 0
rfoot -0.950625 25.0198 0
rtoes -40.5172 0 0
lowerback 16.7842 -1.90396 -5.51372
upperback 5.6738 -3.28542 0.553869
thorax -3.00623 -1.65332 4.29779
lowerneck -12.5516 -0.900002 0.847525
upperneck 1.32102 -1.39344 1.47893
head 2.60044 -0.62871 0.238121
lclavicle 6.73566e-15 2.2662e-14 0
lhumerus -39.7173 -15.3887 90.3855
lradius 50.5067 0 0
lwrist 12.7592 0 0
lhand 6.10839 4.80127 0
lfingers 7.12502 0 0
lthumb 31.4758 32.4915 0
rclavicle 6.73566e-15 2.2662e-14 0
rhumerus -41.0486 -10.6024 -53.2412
rradius 68.6439 0 0
rwrist -10.17 0 0
rhand 11.6654 -17.9237 0
rfingers 7.12502 0 0
rthumb 36.7272 -46.8894 0
139
root 7.58211 16.6175 -26.296 -11.0196 7.34183 2.27479
lfemur -2.67658 9.88796 -19.5764
ltibia 29.1315 0 0
lfoot -15.3156 -10.8356 0
ltoes 30.1628 0 0
rfemur -84.3057 -27.3135 37.9923
rtibia 52.0191 0 0
rfoot -0.177304 25.2524 0
rtoes -40.3298 0 0
lowerback 16.7222 -1.96795 -5.58107
upperback 5.62594 -3.37932 0.52108
thorax -3.00534 -1.69858 4.31618
lowerneck -12.5359 -0.932375 0.808071
upperneck 1.26867 -1.43202 1.55047
head 2.58166 -0.646353 0.266686
lclavicle 9.74864e-15 2.20772e-14 0
lhumerus -39.561 -15.684 90.3347
lradius 50.369 0 0
lwrist 12.6429 0 0
lhand 6.42554 4.88089 0
lfingers 7.12502 0 0
lthumb 31.7767 32.4992 0
rclavicle 9.74864e-15 2.20772e-14 0
rhumerus -41.3895 -10.7687 -53.6404
rradius 69.0728 0 0
rwrist -10.0207 0 0
rhand 10.3848 -18.6087 0
rfingers 7.12502 0 0
rthumb 35.4959 -55.5966 0
140
root 7.54612 16.5966 -26.285 -10.7876 7.74951 2.25427
lfemur -3.15222 10.1105 -19.4816
ltibia 29.4926 0 0
lfoot -15.494 -10.5246 0
ltoes 29.145 0 0
rfemur -84.5461 -27.4776 37.9535
rtibia 54.8656 0 0
rfoot 0.858158 25.4116 0
rtoes -39.9169 0 0
lowerback 16.6137 -2.07406 -5.67214
upperback 5.55319 -3.53204 0.462594
thorax -2.999 -1.77259 4.32701
lowerneck -12.5076 -0.990961 0.741697
upperneck 1.20088 -1.50312 1.6643
head 2.55754 -0.679185 0.311986
lclavicle 1.36253e-14 2.12499e-14 0
lhumerus -39.3616 -16.1925 90.3406
lradius 50.186 0 0
lwrist 12.4844 0 0
lhand 6.96641 5.06218 0
lfingers 7.12502 0 0
lthumb 32.2868 32.5357 0
rclavicle 1.36253e-14 2.12499e-14 0
rhumerus -41.8853 -11.0396 -54.2507
rradius 69.7776 0 0
rwrist -9.82379 0 0
rhand 8.48995 -19.6849 0
rfingers 7.12502 0 0
rthumb 33.6737 -69.0484 0
141
root 7.51013 16.5756 -26.2741 -10.4651 8.34441 2.23614
lfemur -3.80551 10.4965 -19.3649
ltibia 29.9906 0 0
lfoot -15.7044 -10.0559 0
ltoes 27.7591 0 0
rfemur -84.7763 -27.6752 37.8582
rtibia 58.5844 0 0
rfoot 2.18315 25.4824 0
rtoes -39.2602 0 0
lowerback 16.4559 -2.23032 -5.7923
upperback 5.45362 -3.75493 0.373573
thorax -2.98653 -1.88093 4.32944
lowerneck -12.4653 -1.07882 0.643477
upperneck 1.11604 -1.61043 1.82757
head 2.52763 -0.728853 0.376977
lclavicle 1.84957e-14 2.01508e-14 0
lhumerus -39.1107 -16.9513 90.4129
lradius 49.9514 0 0
lwrist 12.2766 0 0
lhand 7.7675 5.36135 0
lfingers 7.12502 0 0
lthumb 33.0402 32.6047 0
rclavicle 1.84957e-14 2.01508e-14 0
rhumerus -42.5598 -11.4363 -55.1005
rradius 70.81 0 0
rwrist -9.577 0 0
rhand 5.89458 -21.2168 0
rfingers 7.12502 0 0
rthumb 31.1777 -88.0137 0
142
root 7.47414 16.5546 -26.2631 -10.0432 9.15156 2.22252
lfemur -4.6547 11.0738 -19.2256
ltibia 30.6419 0 0
lfoot -15.9498 -9.40788 0
ltoes 25.9565 0 0
rfemur -85.0049 -27.9166 37.7084
rtibia 63.2793 0 0
rfoot 3.82507 25.4498 0
rtoes -38.3411 0 0
lowerback 16.2457 -2.44474 -5.94694
upperback 5.32529 -4.05933 0.249178
thorax -2.96723 -2.02919 4.32261
lowerneck -12.4074 -1.19902 0.508485
upperneck 1.01253 -1.75762 2.04741
head 2.49153 -0.797003 0.464619
lclavicle 2.449e-14 1.87506e-14 0
lhumerus -38.7997 -17.9976 90.5612
lradius 49.6589 0 0
lwrist 12.0121 0 0
lhand 8.86532 5.7946 0
lfingers 7.12502 0 0
lthumb 34.071 32.7103 0
rclavicle 2.449e-14 1.87506e-14 0
rhumerus -43.4369 -11.9802 -56.2186
rradius 72.2218 0 0
rwrist -9.27819 0 0
rhand 2.51258 -23.2687 0
rfingers 7.12502 0 0
rthumb 27.9251 -113.261 0
143
root 7.43814 16.5337 -26.2521 -9.51304 10.196 2.21552
lfemur -5.718 11.8704 -19.0631
ltibia 31.4627 0 0
lfoot -16.2331 -8.55886 0
ltoes 23.6887 0 0
rfemur -85.2403 -28.2123 37.5058
rtibia 69.0537 0 0
rfoot 5.81131 25.299 0
rtoes -37.141 0 0
lowerback 15.98 -2.72534 -6.14143
upperback 5.16624 -4.4566 0.0845714
thorax -2.94043 -2.22294 4.30566
lowerneck -12.3325 -1.35461 0.331796
upperneck 0.888749 -1.94835 2.33098
head 2.4488 -0.885284 0.577866
lclavicle 3.17382e-14 1.702e-14 0
lhumerus -38.42 -19.3685 90.7952
lradius 49.3022 0 0
lwrist 11.6838 0 0
lhand 10.2964 6.37813 0
lfingers 7.12502 0 0
lthumb 35.4133 32.8565 0
rclavicle 3.17382e-14 1.702e-14 0
rhumerus -44.5404 -12.6926 -57.6334
rradius 74.0648 0 0
rwrist -8.92517 0 0
rhand -1.74221 -25.9051 0
rfingers 7.12502 0 0
rthumb 23.8329 -145.561 0
144
root 7.40215 16.5127 -26.2412 -8.86583 11.5029 2.21726
lfemur -7.01363 12.9143 -18.8767
ltibia 32.4696 0 0
lfoot -16.5572 -7.4871 0
ltoes 20.9074 0 0
rfemur -85.4912 -28.5726 37.2524
rtibia 76.0115 0 0
rfoot 8.16925 25.015 0
rtoes -35.6414 0 0
lowerback 15.6557 -3.08014 -6.38113
upperback 4.97453 -4.95809 -0.125085
thorax -2.90543 -2.46777 4.27773
lowerneck -12.2391 -1.54867 0.108485
upperneck 0.743078 -2.1863 2.68541
head 2.39904 -0.995343 0.719678
lclavicle 4.03705e-14 1.49297e-14 0
lhumerus -37.9633 -21.1014 91.1244
lradius 48.875 0 0
lwrist 11.2845 0 0
lhand 12.0972 7.12813 0
lfingers 7.12502 0 0
lthumb 37.1012 33.0471 0
rclavicle 4.03705e-14 1.49297e-14 0
rhumerus -45.8941 -13.5948 -59.3734
rradius 76.3908 0 0
rwrist -8.51574 0 0
rhand -6.95594 -29.1905 0
rfingers 7.12502 0 0
rthumb 18.8183 -185.68 0
145
root 7.36616 16.4918 -26.2302 -8.09273 13.0971 2.22987
lfemur -8.55982 14.2334 -18.6657
ltibia 33.6789 0 0
lfoot -16.925 -6.1709 0
ltoes 17.5639 0 0
rfemur -85.766 -29.008 36.9501
rtibia 84.256 0 0
rfoot 10.9263 24.5828 0
rtoes -33.8238 0 0
lowerback 15.2698 -3.51716 -6.67142
upperback 4.74822 -5.57514 -0.384629
thorax -2.86156 -2.76927 4.23796
lowerneck -12.1259 -1.78424 -0.166373
upperneck 0.573906 -2.47513 3.11785
head 2.34181 -1.12883 0.893011
lclavicle 5.05169e-14 1.24504e-14 0
lhumerus -37.4209 -23.2334 91.5586
lradius 48.371 0 0
lwrist 10.8069 0 0
lhand 14.3042 8.06081 0
lfingers 7.12502 0 0
lthumb 39.1688 33.2863 0
rclavicle 5.05169e-14 1.24504e-14 0
rhumerus -47.5221 -14.7082 -61.4673
rradius 79.2517 0 0
rwrist -8.04772 0 0
rhand -13.2148 -33.1893 0
rfingers 7.12502 0 0
rthumb 12.7983 -234.389 0
146
root 7.33017 16.4708 -26.2192 -7.1849 15.0039 2.25545
lfemur -10.3748 15.8557 -18.4295
ltibia 35.1069 0 0
lfoot -17.3394 -4.58855 0
ltoes 13.6098 0 0
rfemur -86.0732 -29.5287 36.6006
rtibia 93.8911 0 0
rfoot 14.1098 23.9875 0
rtoes -31.6696 0 0
lowerback 14.8193 -4.04442 -7.01768
upperback 4.48537 -6.31911 -0.698899
thorax -2.80813 -3.133 4.1855
lowerneck -11.9912 -2.0644 -0.497705
upperneck 0.379623 -2.81853 3.63544
head 2.2767 -1.28738 1.10082
lclavicle 6.23075e-14 9.55277e-15 0
lhumerus -36.7844 -25.8017 92.1073
lradius 47.7839 0 0
lwrist 10.2437 0 0
lhand 16.954 9.19236 0
lfingers 7.12502 0 0
lthumb 41.6501 33.5778 0
rclavicle 6.23075e-14 9.55277e-15 0
rhumerus -49.448 -16.0539 -63.9436
rradius 82.6992 0 0
rwrist -7.51892 0 0
rhand -20.6048 -37.9659 0
rfingers 7.12502 0 0
rthumb 5.69014 -292.455 0
